if (_typeface_js && _typeface_js.loadFace) _typeface_js.loadFace({"glyphs":{"S":{"x_min":-8,"x_max":870,"ha":1042,"o":"m 870 -6 l -8 -6 l -8 179 l 687 179 l 687 517 l -8 517 l -8 1221 l 870 1221 l 870 1038 l 175 1038 l 175 700 l 870 700 l 870 -6 "},"/":{"x_min":-8,"x_max":696,"ha":868,"o":"m 175 -6 l -8 -6 l -8 352 l 166 352 l 166 700 l 340 700 l 340 1047 l 513 1047 l 513 1221 l 696 1221 l 696 1038 l 523 1038 l 523 690 l 349 690 l 349 343 l 175 343 l 175 -6 "},"y":{"x_min":-8,"x_max":523,"ha":694,"o":"m 523 -353 l -8 -353 l -8 -170 l 340 -170 l 340 -6 l -8 -6 l -8 874 l 175 874 l 175 179 l 340 179 l 340 874 l 523 874 l 523 -353 "},"Á":{"x_min":-8,"x_max":869,"ha":1042,"o":"m 522 1385 l 339 1385 l 339 1568 l 512 1568 l 512 1742 l 696 1742 l 696 1559 l 522 1559 l 522 1385 m 175 1038 l 175 700 l 686 700 l 686 1038 l 175 1038 m 175 -6 l -8 -6 l -8 1221 l 869 1221 l 869 -6 l 686 -6 l 686 517 l 175 517 l 175 -6 "},"g":{"x_min":-8,"x_max":523,"ha":694,"o":"m 175 179 l 340 179 l 340 691 l 175 691 l 175 179 m -8 -353 l -8 -170 l 340 -170 l 340 -6 l -8 -6 l -8 874 l 523 874 l 523 -353 l -8 -353 "},"ë":{"x_min":-8,"x_max":523,"ha":694,"o":"m 523 1038 l 340 1038 l 340 1221 l 523 1221 l 523 1038 m 175 1038 l -8 1038 l -8 1221 l 175 1221 l 175 1038 m 175 691 l 175 526 l 340 526 l 340 691 l 175 691 m 523 -6 l -8 -6 l -8 874 l 523 874 l 523 343 l 175 343 l 175 179 l 523 179 l 523 -6 "},"Î":{"x_min":-182,"x_max":349,"ha":347,"o":"m 1 1385 l -182 1385 l -182 1568 l -8 1568 l -8 1742 l 175 1742 l 175 1568 l 349 1568 l 349 1385 l 166 1385 l 166 1559 l 1 1559 l 1 1385 m 175 -6 l -8 -6 l -8 1221 l 175 1221 l 175 -6 "},"e":{"x_min":-8,"x_max":523,"ha":694,"o":"m 175 691 l 175 526 l 340 526 l 340 691 l 175 691 m 523 -6 l -8 -6 l -8 874 l 523 874 l 523 343 l 175 343 l 175 179 l 523 179 l 523 -6 "},"Ã":{"x_min":-8,"x_max":870,"ha":1042,"o":"m 175 1385 l -8 1385 l -8 1568 l 166 1568 l 166 1742 l 523 1742 l 523 1568 l 687 1568 l 687 1742 l 870 1742 l 870 1559 l 696 1559 l 696 1385 l 339 1385 l 339 1559 l 175 1559 l 175 1385 m 175 1038 l 175 700 l 687 700 l 687 1038 l 175 1038 m 175 -6 l -8 -6 l -8 1221 l 870 1221 l 870 -6 l 687 -6 l 687 517 l 175 517 l 175 -6 "},"J":{"x_min":-8,"x_max":870,"ha":1042,"o":"m -8 -6 l -8 179 l 687 179 l 687 1221 l 870 1221 l 870 -6 l -8 -6 "},"‐":{"x_min":-8,"x_max":696.171875,"ha":868,"o":"m 696 517 l -8 517 l -8 700 l 696 700 l 696 517 "},"©":{"x_min":-8,"x_max":1217,"ha":1389,"o":"m 175 1038 l 175 179 l 1034 179 l 1034 1038 l 175 1038 m -8 -6 l -8 1221 l 1217 1221 l 1217 -6 l -8 -6 m 339 343 l 339 874 l 869 874 l 869 691 l 522 691 l 522 526 l 869 526 l 869 343 l 339 343 "},"ò":{"x_min":-8,"x_max":523,"ha":694,"o":"m 349 1038 l 166 1038 l 166 1211 l -8 1211 l -8 1394 l 175 1394 l 175 1221 l 349 1221 l 349 1038 m 175 179 l 340 179 l 340 691 l 175 691 l 175 179 m -8 -6 l -8 874 l 523 874 l 523 -6 l -8 -6 "},"^":{"x_min":-8,"x_max":870,"ha":1042,"o":"m 175 517 l -8 517 l -8 700 l 166 700 l 166 874 l 339 874 l 339 1047 l 522 1047 l 522 874 l 696 874 l 696 700 l 870 700 l 870 517 l 687 517 l 687 691 l 513 691 l 513 864 l 349 864 l 349 691 l 175 691 l 175 517 "},"D":{"x_min":-8,"x_max":870,"ha":1042,"o":"m 175 179 l 687 179 l 687 1038 l 175 1038 l 175 179 m 696 -6 l -8 -6 l -8 1221 l 696 1221 l 696 1047 l 870 1047 l 870 169 l 696 169 l 696 -6 "},"í":{"x_min":-8,"x_max":349,"ha":521,"o":"m 175 1038 l -8 1038 l -8 1221 l 166 1221 l 166 1394 l 349 1394 l 349 1211 l 175 1211 l 175 1038 m 175 -6 l -8 -6 l -8 874 l 175 874 l 175 -6 "},"w":{"x_min":-8,"x_max":869,"ha":1042,"o":"m -8 -6 l -8 874 l 175 874 l 175 179 l 339 179 l 339 874 l 522 874 l 522 179 l 686 179 l 686 874 l 869 874 l 869 -6 l -8 -6 "},"$":{"x_min":-8,"x_max":869,"ha":1042,"o":"m 522 -179 l 339 -179 l 339 -6 l -8 -6 l -8 179 l 686 179 l 686 517 l -8 517 l -8 1221 l 339 1221 l 339 1394 l 522 1394 l 522 1221 l 869 1221 l 869 1038 l 175 1038 l 175 700 l 869 700 l 869 -6 l 522 -6 l 522 -179 "},"\\":{"x_min":-8,"x_max":696,"ha":868,"o":"m 696 -6 l 513 -6 l 513 343 l 340 343 l 340 690 l 166 690 l 166 1038 l -8 1038 l -8 1221 l 175 1221 l 175 1047 l 349 1047 l 349 700 l 523 700 l 523 352 l 696 352 l 696 -6 "},"Ì":{"x_min":-182,"x_max":175,"ha":347,"o":"m 175 1385 l -8 1385 l -8 1559 l -182 1559 l -182 1742 l 1 1742 l 1 1568 l 175 1568 l 175 1385 m 175 -6 l -8 -6 l -8 1221 l 175 1221 l 175 -6 "},"Ç":{"x_min":-8,"x_max":869.78125,"ha":1042,"o":"m 349 -353 l 166 -353 l 166 -170 l 339 -170 l 339 -6 l -8 -6 l -8 1221 l 869 1221 l 869 1038 l 175 1038 l 175 179 l 869 179 l 869 -6 l 522 -6 l 522 -179 l 349 -179 l 349 -353 "},"-":{"x_min":-8,"x_max":696.171875,"ha":868,"o":"m 696 517 l -8 517 l -8 700 l 696 700 l 696 517 "},"Q":{"x_min":-8,"x_max":869,"ha":1042,"o":"m 175 179 l 686 179 l 686 1038 l 175 1038 l 175 179 m 522 -353 l 339 -353 l 339 -6 l -8 -6 l -8 1221 l 869 1221 l 869 -6 l 522 -6 l 522 -353 "},"M":{"x_min":-8,"x_max":870,"ha":1042,"o":"m 175 -6 l -8 -6 l -8 1221 l 175 1221 l 175 1047 l 349 1047 l 349 874 l 513 874 l 513 1047 l 687 1047 l 687 1221 l 870 1221 l 870 -6 l 687 -6 l 687 864 l 522 864 l 522 691 l 339 691 l 339 864 l 175 864 l 175 -6 "},"C":{"x_min":-8,"x_max":869.78125,"ha":1042,"o":"m 869 -6 l -8 -6 l -8 1221 l 869 1221 l 869 1038 l 175 1038 l 175 179 l 869 179 l 869 -6 "},"œ":{"x_min":-8,"x_max":1043,"ha":1215,"o":"m 522 691 l 522 526 l 860 526 l 860 691 l 522 691 m 175 179 l 339 179 l 339 691 l 175 691 l 175 179 m -8 -6 l -8 874 l 1043 874 l 1043 343 l 522 343 l 522 179 l 1043 179 l 1043 -6 l -8 -6 "},"!":{"x_min":-8,"x_max":175,"ha":347,"o":"m 175 343 l -8 343 l -8 1221 l 175 1221 l 175 343 m 175 -6 l -8 -6 l -8 179 l 175 179 l 175 -6 "},"ç":{"x_min":-8,"x_max":523,"ha":694,"o":"m 175 -353 l -8 -353 l -8 -170 l 166 -170 l 166 -6 l -8 -6 l -8 874 l 523 874 l 523 691 l 175 691 l 175 179 l 523 179 l 523 -6 l 349 -6 l 349 -179 l 175 -179 l 175 -353 "},"È":{"x_min":-8,"x_max":869.78125,"ha":1042,"o":"m 522 1385 l 339 1385 l 339 1559 l 166 1559 l 166 1742 l 349 1742 l 349 1568 l 522 1568 l 522 1385 m 869 -6 l -8 -6 l -8 1221 l 869 1221 l 869 1038 l 175 1038 l 175 700 l 696 700 l 696 517 l 175 517 l 175 179 l 869 179 l 869 -6 "},"{":{"x_min":-8,"x_max":523,"ha":694,"o":"m 523 -179 l 166 -179 l 166 517 l -8 517 l -8 700 l 166 700 l 166 1394 l 523 1394 l 523 1211 l 349 1211 l 349 6 l 523 6 l 523 -179 "},"X":{"x_min":-8,"x_max":870,"ha":1042,"o":"m 175 -6 l -8 -6 l -8 526 l 165 526 l 165 690 l -8 690 l -8 1221 l 175 1221 l 175 700 l 687 700 l 687 1221 l 870 1221 l 870 690 l 696 690 l 696 526 l 870 526 l 870 -6 l 687 -6 l 687 517 l 175 517 l 175 -6 "},"ô":{"x_min":-8,"x_max":523,"ha":694,"o":"m 175 1038 l -8 1038 l -8 1221 l 166 1221 l 166 1394 l 349 1394 l 349 1221 l 523 1221 l 523 1038 l 340 1038 l 340 1211 l 175 1211 l 175 1038 m 175 179 l 340 179 l 340 691 l 175 691 l 175 179 m -8 -6 l -8 874 l 523 874 l 523 -6 l -8 -6 "},"#":{"x_min":-8,"x_max":1043.390625,"ha":1215,"o":"m 349 691 l 349 526 l 687 526 l 687 691 l 349 691 m 166 343 l -8 343 l -8 526 l 166 526 l 166 691 l -8 691 l -8 874 l 166 874 l 166 1221 l 349 1221 l 349 874 l 687 874 l 687 1221 l 870 1221 l 870 874 l 1043 874 l 1043 691 l 870 691 l 870 526 l 1043 526 l 1043 343 l 870 343 l 870 -6 l 687 -6 l 687 343 l 349 343 l 349 -6 l 166 -6 l 166 343 "},"Ê":{"x_min":-8,"x_max":869.78125,"ha":1042,"o":"m 349 1385 l 166 1385 l 166 1568 l 339 1568 l 339 1742 l 522 1742 l 522 1568 l 696 1568 l 696 1385 l 513 1385 l 513 1559 l 349 1559 l 349 1385 m 869 -6 l -8 -6 l -8 1221 l 869 1221 l 869 1038 l 175 1038 l 175 700 l 696 700 l 696 517 l 175 517 l 175 179 l 869 179 l 869 -6 "},")":{"x_min":-8,"x_max":523,"ha":694,"o":"m 175 -179 l -8 -179 l -8 6 l 166 6 l 166 179 l 340 179 l 340 1038 l 166 1038 l 166 1211 l -8 1211 l -8 1394 l 175 1394 l 175 1221 l 349 1221 l 349 1047 l 523 1047 l 523 169 l 349 169 l 349 -6 l 175 -6 l 175 -179 "},"Å":{"x_min":-8,"x_max":870,"ha":1042,"o":"m 349 1394 l 513 1394 l 513 1559 l 349 1559 l 349 1394 m 175 1037 l 175 700 l 687 700 l 687 1037 l 175 1037 m 175 -6 l -8 -6 l -8 1221 l 166 1221 l 166 1742 l 696 1742 l 696 1221 l 870 1221 l 870 -6 l 687 -6 l 687 517 l 175 517 l 175 -6 "},"ø":{"x_min":-8,"x_max":523,"ha":694,"o":"m 175 691 l 175 526 l 340 526 l 340 691 l 175 691 m 175 179 l 340 179 l 340 343 l 175 343 l 175 179 m -8 -6 l -8 874 l 523 874 l 523 -6 l -8 -6 "},"â":{"x_min":-8,"x_max":523,"ha":694,"o":"m 175 1038 l -8 1038 l -8 1221 l 166 1221 l 166 1394 l 349 1394 l 349 1221 l 523 1221 l 523 1038 l 340 1038 l 340 1211 l 175 1211 l 175 1038 m 175 343 l 175 179 l 340 179 l 340 343 l 175 343 m -8 -6 l -8 526 l 340 526 l 340 691 l -8 691 l -8 874 l 523 874 l 523 -6 l -8 -6 "},"}":{"x_min":-8,"x_max":523,"ha":694,"o":"m 349 -179 l -8 -179 l -8 6 l 166 6 l 166 1211 l -8 1211 l -8 1394 l 349 1394 l 349 700 l 523 700 l 523 517 l 349 517 l 349 -179 "},"Ä":{"x_min":-8,"x_max":870,"ha":1042,"o":"m 696 1385 l 513 1385 l 513 1568 l 696 1568 l 696 1385 m 349 1385 l 166 1385 l 166 1568 l 349 1568 l 349 1385 m 175 1038 l 175 700 l 687 700 l 687 1038 l 175 1038 m 175 -6 l -8 -6 l -8 1221 l 870 1221 l 870 -6 l 687 -6 l 687 517 l 175 517 l 175 -6 "},"a":{"x_min":-8,"x_max":523,"ha":694,"o":"m 175 179 l 340 179 l 340 343 l 175 343 l 175 179 m -8 -6 l -8 526 l 340 526 l 340 691 l -8 691 l -8 874 l 523 874 l 523 -6 l -8 -6 "},"=":{"x_min":-8,"x_max":696.171875,"ha":868,"o":"m 696 691 l -8 691 l -8 874 l 696 874 l 696 691 m 696 343 l -8 343 l -8 526 l 696 526 l 696 343 "},"N":{"x_min":-8,"x_max":870,"ha":1042,"o":"m 175 -6 l -8 -6 l -8 1221 l 175 1221 l 175 1047 l 349 1047 l 349 874 l 522 874 l 522 700 l 687 700 l 687 1221 l 870 1221 l 870 -6 l 687 -6 l 687 517 l 513 517 l 513 691 l 339 691 l 339 864 l 175 864 l 175 -6 "},"ú":{"x_min":-8,"x_max":523,"ha":694,"o":"m 349 1038 l 166 1038 l 166 1221 l 340 1221 l 340 1394 l 523 1394 l 523 1211 l 349 1211 l 349 1038 m -8 -6 l -8 874 l 175 874 l 175 179 l 340 179 l 340 874 l 523 874 l 523 -6 l -8 -6 "},"2":{"x_min":-8,"x_max":870,"ha":1042,"o":"m -8 700 l 687 700 l 687 1038 l -8 1038 l -8 1221 l 870 1221 l 870 517 l 175 517 l 175 179 l 870 179 l 870 -6 l -8 -6 l -8 700 "},"ü":{"x_min":-8,"x_max":523,"ha":694,"o":"m 523 1038 l 340 1038 l 340 1221 l 523 1221 l 523 1038 m 175 1038 l -8 1038 l -8 1221 l 175 1221 l 175 1038 m -8 -6 l -8 874 l 175 874 l 175 179 l 340 179 l 340 874 l 523 874 l 523 -6 l -8 -6 "},"Z":{"x_min":-8,"x_max":696,"ha":868,"o":"m 696 -6 l -8 -6 l -8 526 l 166 526 l 166 700 l 340 700 l 340 874 l 513 874 l 513 1038 l -8 1038 l -8 1221 l 696 1221 l 696 864 l 523 864 l 523 691 l 349 691 l 349 517 l 175 517 l 175 179 l 696 179 l 696 -6 "},"u":{"x_min":-8,"x_max":523,"ha":694,"o":"m -8 -6 l -8 874 l 175 874 l 175 179 l 340 179 l 340 874 l 523 874 l 523 -6 l -8 -6 "},"Ó":{"x_min":-8,"x_max":869,"ha":1042,"o":"m 522 1385 l 339 1385 l 339 1568 l 512 1568 l 512 1742 l 696 1742 l 696 1559 l 522 1559 l 522 1385 m 175 179 l 686 179 l 686 1038 l 175 1038 l 175 179 m -8 -6 l -8 1221 l 869 1221 l 869 -6 l -8 -6 "},"k":{"x_min":-8,"x_max":523,"ha":694,"o":"m 523 -6 l 340 -6 l 340 343 l 175 343 l 175 -6 l -8 -6 l -8 1221 l 175 1221 l 175 700 l 340 700 l 340 874 l 523 874 l 523 691 l 349 691 l 349 352 l 523 352 l 523 -6 "},"Ù":{"x_min":-8,"x_max":869,"ha":1042,"o":"m 522 1385 l 339 1385 l 339 1559 l 165 1559 l 165 1742 l 348 1742 l 348 1568 l 522 1568 l 522 1385 m -8 -6 l -8 1221 l 175 1221 l 175 179 l 686 179 l 686 1221 l 869 1221 l 869 -6 l -8 -6 "},"€":{"x_min":-8,"x_max":869.78125,"ha":1042,"o":"m 166 343 l -8 343 l -8 526 l 166 526 l 166 691 l -8 691 l -8 874 l 166 874 l 166 1221 l 869 1221 l 869 1038 l 349 1038 l 349 874 l 696 874 l 696 691 l 349 691 l 349 526 l 696 526 l 696 343 l 349 343 l 349 179 l 869 179 l 869 -6 l 166 -6 l 166 343 "},"ß":{"x_min":-8,"x_max":870,"ha":1042,"o":"m 175 -353 l -8 -353 l -8 1221 l 870 1221 l 870 -6 l 339 -6 l 339 179 l 687 179 l 687 691 l 339 691 l 339 874 l 687 874 l 687 1038 l 175 1038 l 175 -353 "},"é":{"x_min":-8,"x_max":523,"ha":694,"o":"m 349 1038 l 166 1038 l 166 1221 l 340 1221 l 340 1394 l 523 1394 l 523 1211 l 349 1211 l 349 1038 m 175 691 l 175 526 l 340 526 l 340 691 l 175 691 m 523 -6 l -8 -6 l -8 874 l 523 874 l 523 343 l 175 343 l 175 179 l 523 179 l 523 -6 "},"s":{"x_min":-8,"x_max":523,"ha":694,"o":"m 523 -6 l -8 -6 l -8 179 l 340 179 l 340 343 l -8 343 l -8 874 l 523 874 l 523 691 l 175 691 l 175 526 l 523 526 l 523 -6 "},"B":{"x_min":-8,"x_max":870,"ha":1042,"o":"m 175 1038 l 175 700 l 687 700 l 687 1038 l 175 1038 m 175 179 l 687 179 l 687 517 l 175 517 l 175 179 m 870 -6 l -8 -6 l -8 1221 l 870 1221 l 870 690 l 696 690 l 696 526 l 870 526 l 870 -6 "},"?":{"x_min":-8,"x_max":869,"ha":1042,"o":"m 522 343 l 339 343 l 339 700 l 686 700 l 686 1038 l 175 1038 l 175 864 l -8 864 l -8 1221 l 869 1221 l 869 517 l 522 517 l 522 343 m 522 -6 l 339 -6 l 339 179 l 522 179 l 522 -6 "},"H":{"x_min":-8,"x_max":870,"ha":1042,"o":"m 175 -6 l -8 -6 l -8 1221 l 175 1221 l 175 700 l 687 700 l 687 1221 l 870 1221 l 870 -6 l 687 -6 l 687 517 l 175 517 l 175 -6 "},"î":{"x_min":-8,"x_max":523,"ha":694,"o":"m 175 1038 l -8 1038 l -8 1221 l 166 1221 l 166 1394 l 349 1394 l 349 1221 l 523 1221 l 523 1038 l 340 1038 l 340 1211 l 175 1211 l 175 1038 m 349 -6 l 166 -6 l 166 874 l 349 874 l 349 -6 "},"c":{"x_min":-8,"x_max":522.546875,"ha":694,"o":"m 522 -6 l -8 -6 l -8 874 l 522 874 l 522 691 l 175 691 l 175 179 l 522 179 l 522 -6 "},"¥":{"x_min":-8,"x_max":869,"ha":1042,"o":"m 339 169 l -8 169 l -8 352 l 339 352 l 339 517 l -8 517 l -8 1221 l 175 1221 l 175 700 l 686 700 l 686 1221 l 869 1221 l 869 517 l 522 517 l 522 352 l 869 352 l 869 169 l 522 169 l 522 -6 l 339 -6 l 339 169 "},"(":{"x_min":-8,"x_max":523,"ha":694,"o":"m 523 -179 l 340 -179 l 340 -6 l 166 -6 l 166 169 l -8 169 l -8 1047 l 166 1047 l 166 1221 l 340 1221 l 340 1394 l 523 1394 l 523 1211 l 349 1211 l 349 1038 l 175 1038 l 175 179 l 349 179 l 349 6 l 523 6 l 523 -179 "},"U":{"x_min":-8,"x_max":870,"ha":1042,"o":"m 870 -6 l -8 -6 l -8 1221 l 175 1221 l 175 179 l 687 179 l 687 1221 l 870 1221 l 870 -6 "},"Ñ":{"x_min":-8,"x_max":870,"ha":1042,"o":"m 175 1385 l -8 1385 l -8 1568 l 166 1568 l 166 1742 l 523 1742 l 523 1568 l 687 1568 l 687 1742 l 870 1742 l 870 1559 l 696 1559 l 696 1385 l 339 1385 l 339 1559 l 175 1559 l 175 1385 m 175 -6 l -8 -6 l -8 1221 l 175 1221 l 175 1047 l 349 1047 l 349 874 l 523 874 l 523 700 l 687 700 l 687 1221 l 870 1221 l 870 -6 l 687 -6 l 687 517 l 513 517 l 513 691 l 339 691 l 339 864 l 175 864 l 175 -6 "},"F":{"x_min":-8,"x_max":869.78125,"ha":1042,"o":"m 175 -6 l -8 -6 l -8 1221 l 869 1221 l 869 1038 l 175 1038 l 175 700 l 696 700 l 696 517 l 175 517 l 175 -6 "},":":{"x_min":-8,"x_max":175,"ha":347,"o":"m 175 691 l -8 691 l -8 874 l 175 874 l 175 691 m 175 -6 l -8 -6 l -8 179 l 175 179 l 175 -6 "},"Û":{"x_min":-8,"x_max":869,"ha":1042,"o":"m 348 1385 l 165 1385 l 165 1568 l 339 1568 l 339 1742 l 522 1742 l 522 1568 l 696 1568 l 696 1385 l 512 1385 l 512 1559 l 348 1559 l 348 1385 m -8 -6 l -8 1221 l 175 1221 l 175 179 l 686 179 l 686 1221 l 869 1221 l 869 -6 l -8 -6 "},"*":{"x_min":-8,"x_max":869.78125,"ha":1042,"o":"m 349 343 l 166 343 l 166 526 l 339 526 l 339 691 l -8 691 l -8 874 l 339 874 l 339 1038 l 166 1038 l 166 1221 l 349 1221 l 349 1048 l 513 1048 l 513 1221 l 696 1221 l 696 1038 l 522 1038 l 522 874 l 869 874 l 869 691 l 522 691 l 522 526 l 696 526 l 696 343 l 513 343 l 513 517 l 349 517 l 349 343 "},"V":{"x_min":-8,"x_max":869,"ha":1042,"o":"m 522 -6 l 339 -6 l 339 169 l 165 169 l 165 343 l -8 343 l -8 1221 l 175 1221 l 175 352 l 348 352 l 348 179 l 512 179 l 512 352 l 686 352 l 686 1221 l 869 1221 l 869 343 l 696 343 l 696 169 l 522 169 l 522 -6 "},"å":{"x_min":-8,"x_max":523,"ha":694,"o":"m 175 1048 l 340 1048 l 340 1211 l 175 1211 l 175 1048 m 175 343 l 175 179 l 340 179 l 340 343 l 175 343 m -8 -6 l -8 526 l 340 526 l 340 691 l -8 691 l -8 874 l 166 874 l 166 1038 l -8 1038 l -8 1221 l 166 1221 l 166 1394 l 349 1394 l 349 1221 l 523 1221 l 523 1038 l 349 1038 l 349 874 l 523 874 l 523 -6 l -8 -6 "},"0":{"x_min":-8,"x_max":870,"ha":1042,"o":"m 175 179 l 687 179 l 687 1038 l 175 1038 l 175 179 m 870 -6 l -8 -6 l -8 1221 l 870 1221 l 870 -6 "},"@":{"x_min":-8,"x_max":869,"ha":1042,"o":"m 869 -6 l -8 -6 l -8 1221 l 869 1221 l 869 343 l 339 343 l 339 874 l 522 874 l 522 526 l 686 526 l 686 1038 l 175 1038 l 175 179 l 869 179 l 869 -6 "},"ö":{"x_min":-8,"x_max":523,"ha":694,"o":"m 523 1038 l 340 1038 l 340 1221 l 523 1221 l 523 1038 m 175 1038 l -8 1038 l -8 1221 l 175 1221 l 175 1038 m 175 179 l 340 179 l 340 691 l 175 691 l 175 179 m -8 -6 l -8 874 l 523 874 l 523 -6 l -8 -6 "},"i":{"x_min":-8,"x_max":175,"ha":347,"o":"m 175 1038 l -8 1038 l -8 1221 l 175 1221 l 175 1038 m 175 -6 l -8 -6 l -8 874 l 175 874 l 175 -6 "},"Õ":{"x_min":-8,"x_max":870,"ha":1042,"o":"m 175 1385 l -8 1385 l -8 1568 l 166 1568 l 166 1742 l 523 1742 l 523 1568 l 687 1568 l 687 1742 l 870 1742 l 870 1559 l 696 1559 l 696 1385 l 339 1385 l 339 1559 l 175 1559 l 175 1385 m 175 179 l 687 179 l 687 1038 l 175 1038 l 175 179 m -8 -6 l -8 1221 l 870 1221 l 870 -6 l -8 -6 "},"]":{"x_min":-8,"x_max":523,"ha":694,"o":"m 523 -179 l -8 -179 l -8 6 l 340 6 l 340 1211 l -8 1211 l -8 1394 l 523 1394 l 523 -179 "},"m":{"x_min":-8,"x_max":869,"ha":1042,"o":"m 175 -6 l -8 -6 l -8 874 l 869 874 l 869 -6 l 686 -6 l 686 691 l 522 691 l 522 -6 l 339 -6 l 339 691 l 175 691 l 175 -6 "},"8":{"x_min":-8,"x_max":870,"ha":1042,"o":"m 175 1038 l 175 700 l 687 700 l 687 1038 l 175 1038 m 175 179 l 687 179 l 687 517 l 175 517 l 175 179 m -8 -6 l -8 1221 l 870 1221 l 870 -6 l -8 -6 "},"R":{"x_min":-8,"x_max":869,"ha":1042,"o":"m 175 1038 l 175 700 l 686 700 l 686 1038 l 175 1038 m 175 -6 l -8 -6 l -8 1221 l 869 1221 l 869 517 l 522 517 l 522 352 l 696 352 l 696 179 l 869 179 l 869 -6 l 686 -6 l 686 169 l 512 169 l 512 343 l 339 343 l 339 517 l 175 517 l 175 -6 "},"á":{"x_min":-8,"x_max":523,"ha":694,"o":"m 349 1038 l 166 1038 l 166 1221 l 340 1221 l 340 1394 l 523 1394 l 523 1211 l 349 1211 l 349 1038 m 175 343 l 175 179 l 340 179 l 340 343 l 175 343 m -8 -6 l -8 526 l 340 526 l 340 691 l -8 691 l -8 874 l 523 874 l 523 -6 l -8 -6 "},"o":{"x_min":-8,"x_max":523,"ha":694,"o":"m 175 179 l 340 179 l 340 691 l 175 691 l 175 179 m -8 -6 l -8 874 l 523 874 l 523 -6 l -8 -6 "},"5":{"x_min":-8,"x_max":870,"ha":1042,"o":"m 870 -6 l -8 -6 l -8 179 l 687 179 l 687 517 l -8 517 l -8 1221 l 870 1221 l 870 1038 l 175 1038 l 175 700 l 870 700 l 870 -6 "},"õ":{"x_min":-8,"x_max":696,"ha":868,"o":"m 175 1038 l -8 1038 l -8 1221 l 166 1221 l 166 1394 l 349 1394 l 349 1221 l 513 1221 l 513 1394 l 696 1394 l 696 1211 l 523 1211 l 523 1038 l 340 1038 l 340 1211 l 175 1211 l 175 1038 m 175 179 l 340 179 l 340 691 l 175 691 l 175 179 m -8 -6 l -8 874 l 523 874 l 523 -6 l -8 -6 "},"7":{"x_min":-8,"x_max":870,"ha":1042,"o":"m 870 -6 l 687 -6 l 687 1038 l -8 1038 l -8 1221 l 870 1221 l 870 -6 "},"K":{"x_min":-8,"x_max":870,"ha":1042,"o":"m 175 -6 l -8 -6 l -8 1221 l 175 1221 l 175 700 l 339 700 l 339 874 l 513 874 l 513 1047 l 687 1047 l 687 1221 l 870 1221 l 870 1038 l 696 1038 l 696 864 l 522 864 l 522 691 l 349 691 l 349 526 l 522 526 l 522 352 l 696 352 l 696 179 l 870 179 l 870 -6 l 687 -6 l 687 169 l 513 169 l 513 343 l 339 343 l 339 517 l 175 517 l 175 -6 "},",":{"x_min":-8,"x_max":175,"ha":347,"o":"m 175 -179 l -8 -179 l -8 353 l 175 353 l 175 -179 "},"d":{"x_min":-8,"x_max":523,"ha":694,"o":"m 175 179 l 340 179 l 340 691 l 175 691 l 175 179 m -8 -6 l -8 874 l 340 874 l 340 1221 l 523 1221 l 523 -6 l -8 -6 "},"E":{"x_min":-8,"x_max":869.78125,"ha":1042,"o":"m 869 -6 l -8 -6 l -8 1221 l 869 1221 l 869 1038 l 175 1038 l 175 700 l 696 700 l 696 517 l 175 517 l 175 179 l 869 179 l 869 -6 "},"Y":{"x_min":-8,"x_max":869,"ha":1042,"o":"m 522 -6 l 339 -6 l 339 517 l -8 517 l -8 1221 l 175 1221 l 175 700 l 686 700 l 686 1221 l 869 1221 l 869 517 l 522 517 l 522 -6 "},"Ô":{"x_min":-8,"x_max":869,"ha":1042,"o":"m 348 1385 l 165 1385 l 165 1568 l 339 1568 l 339 1742 l 522 1742 l 522 1568 l 696 1568 l 696 1385 l 512 1385 l 512 1559 l 348 1559 l 348 1385 m 175 179 l 686 179 l 686 1038 l 175 1038 l 175 179 m -8 -6 l -8 1221 l 869 1221 l 869 -6 l -8 -6 "},"\"":{"x_min":-8,"x_max":523,"ha":694,"o":"m 523 690 l 340 690 l 340 1221 l 523 1221 l 523 690 m 175 690 l -8 690 l -8 1221 l 175 1221 l 175 690 "},"ê":{"x_min":-8,"x_max":523,"ha":694,"o":"m 175 1038 l -8 1038 l -8 1221 l 166 1221 l 166 1394 l 349 1394 l 349 1221 l 523 1221 l 523 1038 l 340 1038 l 340 1211 l 175 1211 l 175 1038 m 175 691 l 175 526 l 340 526 l 340 691 l 175 691 m 523 -6 l -8 -6 l -8 874 l 523 874 l 523 343 l 175 343 l 175 179 l 523 179 l 523 -6 "},"Ï":{"x_min":-182,"x_max":349,"ha":347,"o":"m 349 1385 l 166 1385 l 166 1568 l 349 1568 l 349 1385 m 1 1385 l -182 1385 l -182 1568 l 1 1568 l 1 1385 m 175 -6 l -8 -6 l -8 1221 l 175 1221 l 175 -6 "},"Â":{"x_min":-8,"x_max":869,"ha":1042,"o":"m 348 1385 l 165 1385 l 165 1568 l 339 1568 l 339 1742 l 522 1742 l 522 1568 l 696 1568 l 696 1385 l 512 1385 l 512 1559 l 348 1559 l 348 1385 m 175 1038 l 175 700 l 686 700 l 686 1038 l 175 1038 m 175 -6 l -8 -6 l -8 1221 l 869 1221 l 869 -6 l 686 -6 l 686 517 l 175 517 l 175 -6 "},"Í":{"x_min":-8,"x_max":349,"ha":347,"o":"m 175 1385 l -8 1385 l -8 1568 l 166 1568 l 166 1742 l 349 1742 l 349 1559 l 175 1559 l 175 1385 m 175 -6 l -8 -6 l -8 1221 l 175 1221 l 175 -6 "},"ì":{"x_min":-8,"x_max":349,"ha":521,"o":"m 349 1038 l 166 1038 l 166 1211 l -8 1211 l -8 1394 l 175 1394 l 175 1221 l 349 1221 l 349 1038 m 349 -6 l 166 -6 l 166 874 l 349 874 l 349 -6 "},"|":{"x_min":-8,"x_max":175,"ha":347,"o":"m 175 -179 l -8 -179 l -8 1394 l 175 1394 l 175 -179 "},"Ú":{"x_min":-8,"x_max":869,"ha":1042,"o":"m 522 1385 l 339 1385 l 339 1568 l 512 1568 l 512 1742 l 696 1742 l 696 1559 l 522 1559 l 522 1385 m -8 -6 l -8 1221 l 175 1221 l 175 179 l 686 179 l 686 1221 l 869 1221 l 869 -6 l -8 -6 "},"Ý":{"x_min":-8,"x_max":869,"ha":1042,"o":"m 522 1385 l 339 1385 l 339 1568 l 512 1568 l 512 1742 l 696 1742 l 696 1559 l 522 1559 l 522 1385 m 522 -6 l 339 -6 l 339 517 l -8 517 l -8 1221 l 175 1221 l 175 700 l 686 700 l 686 1221 l 869 1221 l 869 517 l 522 517 l 522 -6 "},"b":{"x_min":-8,"x_max":523,"ha":694,"o":"m 175 179 l 340 179 l 340 691 l 175 691 l 175 179 m -8 -6 l -8 1221 l 175 1221 l 175 874 l 523 874 l 523 -6 l -8 -6 "},"q":{"x_min":-8,"x_max":523,"ha":694,"o":"m 175 179 l 340 179 l 340 691 l 175 691 l 175 179 m 523 -353 l 340 -353 l 340 -6 l -8 -6 l -8 874 l 523 874 l 523 -353 "},"Ö":{"x_min":-8,"x_max":870,"ha":1042,"o":"m 696 1385 l 513 1385 l 513 1568 l 696 1568 l 696 1385 m 349 1385 l 166 1385 l 166 1568 l 349 1568 l 349 1385 m 175 179 l 687 179 l 687 1038 l 175 1038 l 175 179 m -8 -6 l -8 1221 l 870 1221 l 870 -6 l -8 -6 "},"z":{"x_min":-8,"x_max":523,"ha":694,"o":"m 523 -6 l -8 -6 l -8 352 l 166 352 l 166 526 l 340 526 l 340 691 l -8 691 l -8 874 l 523 874 l 523 517 l 349 517 l 349 343 l 175 343 l 175 179 l 523 179 l 523 -6 "},"™":{"x_min":-8,"x_max":1217,"ha":1389,"o":"m 870 690 l 687 690 l 687 1221 l 870 1221 l 870 1047 l 1034 1047 l 1034 1221 l 1217 1221 l 1217 690 l 1034 690 l 1034 864 l 870 864 l 870 690 m 349 690 l 166 690 l 166 1038 l -8 1038 l -8 1221 l 523 1221 l 523 1038 l 349 1038 l 349 690 "},"ã":{"x_min":-8,"x_max":696,"ha":868,"o":"m 175 1038 l -8 1038 l -8 1221 l 166 1221 l 166 1394 l 349 1394 l 349 1221 l 513 1221 l 513 1394 l 696 1394 l 696 1211 l 523 1211 l 523 1038 l 340 1038 l 340 1211 l 175 1211 l 175 1038 m 175 179 l 340 179 l 340 343 l 175 343 l 175 179 m -8 -6 l -8 526 l 340 526 l 340 691 l -8 691 l -8 874 l 523 874 l 523 -6 l -8 -6 "},"æ":{"x_min":-8,"x_max":869,"ha":1042,"o":"m 522 526 l 686 526 l 686 691 l 522 691 l 522 526 m 175 343 l 175 179 l 339 179 l 339 343 l 175 343 m -8 -6 l -8 526 l 339 526 l 339 691 l -8 691 l -8 874 l 869 874 l 869 343 l 522 343 l 522 179 l 869 179 l 869 -6 l -8 -6 "},"®":{"x_min":-8,"x_max":1217,"ha":1389,"o":"m 175 179 l 1034 179 l 1034 1038 l 175 1038 l 175 179 m -8 -6 l -8 1221 l 1217 1221 l 1217 -6 l -8 -6 m 522 343 l 339 343 l 339 874 l 869 874 l 869 691 l 522 691 l 522 343 "},"É":{"x_min":-8,"x_max":869.78125,"ha":1042,"o":"m 522 1385 l 339 1385 l 339 1568 l 513 1568 l 513 1742 l 696 1742 l 696 1559 l 522 1559 l 522 1385 m 869 -6 l -8 -6 l -8 1221 l 869 1221 l 869 1038 l 175 1038 l 175 700 l 696 700 l 696 517 l 175 517 l 175 179 l 869 179 l 869 -6 "},"~":{"x_min":-8,"x_max":870,"ha":1042,"o":"m 175 517 l -8 517 l -8 874 l 522 874 l 522 700 l 687 700 l 687 874 l 870 874 l 870 517 l 339 517 l 339 691 l 175 691 l 175 517 "},"¡":{"x_min":-8,"x_max":175,"ha":347,"o":"m 175 691 l -8 691 l -8 874 l 175 874 l 175 691 m 175 -353 l -8 -353 l -8 526 l 175 526 l 175 -353 "},"[":{"x_min":-8,"x_max":522.546875,"ha":694,"o":"m 522 -179 l -8 -179 l -8 1394 l 522 1394 l 522 1211 l 175 1211 l 175 6 l 522 6 l 522 -179 "},"L":{"x_min":-8,"x_max":869.78125,"ha":1042,"o":"m -8 -6 l -8 1221 l 175 1221 l 175 179 l 869 179 l 869 -6 l -8 -6 "}," ":{"x_min":0,"x_max":0,"ha":521},"%":{"x_min":-8,"x_max":1217,"ha":1389,"o":"m 175 874 l 339 874 l 339 1038 l 175 1038 l 175 874 m 870 179 l 1034 179 l 1034 343 l 870 343 l 870 179 m 522 -6 l 339 -6 l 339 352 l 513 352 l 513 691 l -8 691 l -8 1221 l 522 1221 l 522 700 l 687 700 l 687 1048 l 860 1048 l 860 1221 l 1043 1221 l 1043 1038 l 870 1038 l 870 691 l 696 691 l 696 526 l 1217 526 l 1217 -6 l 687 -6 l 687 343 l 522 343 l 522 -6 "},"P":{"x_min":-8,"x_max":870,"ha":1042,"o":"m 175 1038 l 175 700 l 687 700 l 687 1038 l 175 1038 m 175 -6 l -8 -6 l -8 1221 l 870 1221 l 870 517 l 175 517 l 175 -6 "},"À":{"x_min":-8,"x_max":869,"ha":1042,"o":"m 522 1385 l 339 1385 l 339 1559 l 165 1559 l 165 1742 l 348 1742 l 348 1568 l 522 1568 l 522 1385 m 175 1038 l 175 700 l 686 700 l 686 1038 l 175 1038 m 175 -6 l -8 -6 l -8 1221 l 869 1221 l 869 -6 l 686 -6 l 686 517 l 175 517 l 175 -6 "},"_":{"x_min":-8,"x_max":696.171875,"ha":868,"o":"m 696 -353 l -8 -353 l -8 -169 l 696 -169 l 696 -353 "},"ñ":{"x_min":-8,"x_max":696,"ha":868,"o":"m 175 1038 l -8 1038 l -8 1221 l 166 1221 l 166 1394 l 349 1394 l 349 1221 l 513 1221 l 513 1394 l 696 1394 l 696 1211 l 523 1211 l 523 1038 l 340 1038 l 340 1211 l 175 1211 l 175 1038 m 175 -6 l -8 -6 l -8 874 l 523 874 l 523 -6 l 340 -6 l 340 691 l 175 691 l 175 -6 "},"+":{"x_min":-8,"x_max":1217,"ha":1389,"o":"m 513 517 l -8 517 l -8 700 l 513 700 l 513 1221 l 696 1221 l 696 700 l 1217 700 l 1217 517 l 696 517 l 696 -6 l 513 -6 l 513 517 "},"Æ":{"x_min":-8,"x_max":1564.21875,"ha":1736,"o":"m 175 1038 l 175 700 l 686 700 l 686 1038 l 175 1038 m 175 -6 l -8 -6 l -8 1221 l 1564 1221 l 1564 1038 l 869 1038 l 869 700 l 1390 700 l 1390 517 l 869 517 l 869 179 l 1564 179 l 1564 -6 l 686 -6 l 686 517 l 175 517 l 175 -6 "},"Ë":{"x_min":-8,"x_max":869.78125,"ha":1042,"o":"m 696 1385 l 513 1385 l 513 1568 l 696 1568 l 696 1385 m 349 1385 l 166 1385 l 166 1568 l 349 1568 l 349 1385 m 869 -6 l -8 -6 l -8 1221 l 869 1221 l 869 1038 l 175 1038 l 175 700 l 696 700 l 696 517 l 175 517 l 175 179 l 869 179 l 869 -6 "},"'":{"x_min":-8,"x_max":175,"ha":347,"o":"m 175 690 l -8 690 l -8 1221 l 175 1221 l 175 690 "},"Œ":{"x_min":-8,"x_max":1564.21875,"ha":1736,"o":"m 175 179 l 686 179 l 686 1038 l 175 1038 l 175 179 m -8 -6 l -8 1221 l 1564 1221 l 1564 1038 l 869 1038 l 869 700 l 1390 700 l 1390 517 l 869 517 l 869 179 l 1564 179 l 1564 -6 l -8 -6 "},"T":{"x_min":-8,"x_max":869.78125,"ha":1042,"o":"m 522 -6 l 339 -6 l 339 1038 l -8 1038 l -8 1221 l 869 1221 l 869 1038 l 522 1038 l 522 -6 "},"j":{"x_min":-8,"x_max":523,"ha":694,"o":"m 523 1038 l 340 1038 l 340 1221 l 523 1221 l 523 1038 m -8 -353 l -8 -170 l 340 -170 l 340 874 l 523 874 l 523 -353 l -8 -353 "},"1":{"x_min":-8,"x_max":349,"ha":521,"o":"m 349 -6 l 166 -6 l 166 1038 l -8 1038 l -8 1221 l 349 1221 l 349 -6 "},"ä":{"x_min":-8,"x_max":523,"ha":694,"o":"m 523 1038 l 340 1038 l 340 1221 l 523 1221 l 523 1038 m 175 1038 l -8 1038 l -8 1221 l 175 1221 l 175 1038 m 175 343 l 175 179 l 340 179 l 340 343 l 175 343 m -8 -6 l -8 526 l 340 526 l 340 691 l -8 691 l -8 874 l 523 874 l 523 -6 l -8 -6 "},"<":{"x_min":-8,"x_max":696,"ha":868,"o":"m 696 -6 l 513 -6 l 513 169 l 340 169 l 340 343 l 166 343 l 166 517 l -8 517 l -8 700 l 166 700 l 166 874 l 340 874 l 340 1047 l 513 1047 l 513 1221 l 696 1221 l 696 1038 l 523 1038 l 523 864 l 349 864 l 349 691 l 175 691 l 175 526 l 349 526 l 349 352 l 523 352 l 523 179 l 696 179 l 696 -6 "},"£":{"x_min":-8,"x_max":1043.390625,"ha":1215,"o":"m -8 -6 l -8 179 l 166 179 l 166 343 l -8 343 l -8 526 l 166 526 l 166 1221 l 869 1221 l 869 1038 l 349 1038 l 349 526 l 696 526 l 696 343 l 349 343 l 349 179 l 1043 179 l 1043 -6 l -8 -6 "},"t":{"x_min":-8,"x_max":523,"ha":694,"o":"m 523 -6 l 166 -6 l 166 691 l -8 691 l -8 874 l 166 874 l 166 1221 l 349 1221 l 349 874 l 523 874 l 523 691 l 349 691 l 349 179 l 523 179 l 523 -6 "},"ù":{"x_min":-8,"x_max":523,"ha":694,"o":"m 349 1038 l 166 1038 l 166 1211 l -8 1211 l -8 1394 l 175 1394 l 175 1221 l 349 1221 l 349 1038 m -8 -6 l -8 874 l 175 874 l 175 179 l 340 179 l 340 874 l 523 874 l 523 -6 l -8 -6 "},"W":{"x_min":-8,"x_max":1217,"ha":1389,"o":"m -8 -6 l -8 1221 l 175 1221 l 175 179 l 513 179 l 513 1221 l 696 1221 l 696 179 l 1034 179 l 1034 1221 l 1217 1221 l 1217 -6 l -8 -6 "},"ï":{"x_min":-8,"x_max":523,"ha":694,"o":"m 523 1038 l 340 1038 l 340 1221 l 523 1221 l 523 1038 m 175 1038 l -8 1038 l -8 1221 l 175 1221 l 175 1038 m 349 -6 l 166 -6 l 166 874 l 349 874 l 349 -6 "},">":{"x_min":-8,"x_max":696,"ha":868,"o":"m 175 -6 l -8 -6 l -8 179 l 166 179 l 166 352 l 340 352 l 340 526 l 513 526 l 513 691 l 340 691 l 340 864 l 166 864 l 166 1038 l -8 1038 l -8 1221 l 175 1221 l 175 1047 l 349 1047 l 349 874 l 523 874 l 523 700 l 696 700 l 696 517 l 523 517 l 523 343 l 349 343 l 349 169 l 175 169 l 175 -6 "},"v":{"x_min":-8,"x_max":523,"ha":694,"o":"m 349 -6 l 166 -6 l 166 169 l -8 169 l -8 874 l 175 874 l 175 179 l 340 179 l 340 874 l 523 874 l 523 169 l 349 169 l 349 -6 "},"û":{"x_min":-8,"x_max":523,"ha":694,"o":"m 175 1038 l -8 1038 l -8 1221 l 166 1221 l 166 1394 l 349 1394 l 349 1221 l 523 1221 l 523 1038 l 340 1038 l 340 1211 l 175 1211 l 175 1038 m -8 -6 l -8 874 l 175 874 l 175 179 l 340 179 l 340 874 l 523 874 l 523 -6 l -8 -6 "},"Ò":{"x_min":-8,"x_max":869,"ha":1042,"o":"m 522 1385 l 339 1385 l 339 1559 l 165 1559 l 165 1742 l 348 1742 l 348 1568 l 522 1568 l 522 1385 m 175 179 l 686 179 l 686 1038 l 175 1038 l 175 179 m -8 -6 l -8 1221 l 869 1221 l 869 -6 l -8 -6 "},"&":{"x_min":-8,"x_max":1217,"ha":1389,"o":"m 349 874 l 513 874 l 513 1038 l 349 1038 l 349 874 m 175 691 l 175 179 l 686 179 l 686 691 l 175 691 m -8 -6 l -8 874 l 166 874 l 166 1221 l 696 1221 l 696 874 l 869 874 l 869 352 l 1034 352 l 1034 526 l 1217 526 l 1217 343 l 1043 343 l 1043 179 l 1217 179 l 1217 -6 l 1034 -6 l 1034 169 l 869 169 l 869 -6 l -8 -6 "},"I":{"x_min":-8,"x_max":175,"ha":347,"o":"m 175 -6 l -8 -6 l -8 1221 l 175 1221 l 175 -6 "},"G":{"x_min":-8,"x_max":870,"ha":1042,"o":"m 870 -6 l -8 -6 l -8 1221 l 870 1221 l 870 1038 l 175 1038 l 175 179 l 687 179 l 687 517 l 339 517 l 339 700 l 870 700 l 870 -6 "},"`":{"x_min":-8,"x_max":349,"ha":521,"o":"m 349 864 l 166 864 l 166 1038 l -8 1038 l -8 1221 l 175 1221 l 175 1047 l 349 1047 l 349 864 "},"r":{"x_min":-8,"x_max":522.546875,"ha":694,"o":"m 175 -6 l -8 -6 l -8 874 l 522 874 l 522 691 l 175 691 l 175 -6 "},"¿":{"x_min":-8,"x_max":869,"ha":1042,"o":"m 522 691 l 339 691 l 339 874 l 522 874 l 522 691 m -8 -353 l -8 352 l 339 352 l 339 526 l 522 526 l 522 169 l 175 169 l 175 -170 l 686 -170 l 686 5 l 869 5 l 869 -353 l -8 -353 "},"ý":{"x_min":-8,"x_max":523,"ha":694,"o":"m 349 1038 l 166 1038 l 166 1221 l 340 1221 l 340 1394 l 523 1394 l 523 1211 l 349 1211 l 349 1038 m 523 -353 l -8 -353 l -8 -170 l 340 -170 l 340 -6 l -8 -6 l -8 874 l 175 874 l 175 179 l 340 179 l 340 874 l 523 874 l 523 -353 "},"x":{"x_min":-8,"x_max":523,"ha":694,"o":"m 175 -6 l -8 -6 l -8 352 l 166 352 l 166 517 l -8 517 l -8 874 l 175 874 l 175 526 l 340 526 l 340 874 l 523 874 l 523 517 l 349 517 l 349 352 l 523 352 l 523 -6 l 340 -6 l 340 343 l 175 343 l 175 -6 "},"è":{"x_min":-8,"x_max":523,"ha":694,"o":"m 349 1038 l 166 1038 l 166 1211 l -8 1211 l -8 1394 l 175 1394 l 175 1221 l 349 1221 l 349 1038 m 175 691 l 175 526 l 340 526 l 340 691 l 175 691 m 523 -6 l -8 -6 l -8 874 l 523 874 l 523 343 l 175 343 l 175 179 l 523 179 l 523 -6 "},"º":{"x_min":-8,"x_max":523,"ha":694,"o":"m 175 874 l 340 874 l 340 1038 l 175 1038 l 175 874 m 523 690 l -8 690 l -8 1221 l 523 1221 l 523 690 "},"Ø":{"x_min":-8,"x_max":870,"ha":1042,"o":"m 175 1038 l 175 526 l 339 526 l 339 700 l 513 700 l 513 874 l 687 874 l 687 1038 l 175 1038 m 175 179 l 687 179 l 687 691 l 522 691 l 522 517 l 349 517 l 349 343 l 175 343 l 175 179 m -8 -6 l -8 1221 l 870 1221 l 870 -6 l -8 -6 "},"h":{"x_min":-8,"x_max":523,"ha":694,"o":"m 175 -6 l -8 -6 l -8 1221 l 175 1221 l 175 874 l 523 874 l 523 -6 l 340 -6 l 340 691 l 175 691 l 175 -6 "},".":{"x_min":-8,"x_max":175,"ha":347,"o":"m 175 -6 l -8 -6 l -8 179 l 175 179 l 175 -6 "},";":{"x_min":-8,"x_max":175,"ha":347,"o":"m 175 517 l -8 517 l -8 700 l 175 700 l 175 517 m 175 -179 l -8 -179 l -8 352 l 175 352 l 175 -179 "},"f":{"x_min":-8,"x_max":523,"ha":694,"o":"m 166 517 l -8 517 l -8 700 l 166 700 l 166 1221 l 523 1221 l 523 1038 l 349 1038 l 349 700 l 523 700 l 523 517 l 349 517 l 349 -6 l 166 -6 l 166 517 "},"A":{"x_min":-8,"x_max":870,"ha":1042,"o":"m 175 1038 l 175 700 l 687 700 l 687 1038 l 175 1038 m 175 -6 l -8 -6 l -8 1221 l 870 1221 l 870 -6 l 687 -6 l 687 517 l 175 517 l 175 -6 "},"6":{"x_min":-8,"x_max":870,"ha":1042,"o":"m 175 179 l 687 179 l 687 517 l 175 517 l 175 179 m 870 -6 l -8 -6 l -8 1221 l 870 1221 l 870 1038 l 175 1038 l 175 700 l 870 700 l 870 -6 "},"O":{"x_min":-8,"x_max":870,"ha":1042,"o":"m 175 179 l 687 179 l 687 1038 l 175 1038 l 175 179 m -8 -6 l -8 1221 l 870 1221 l 870 -6 l -8 -6 "},"n":{"x_min":-8,"x_max":523,"ha":694,"o":"m 175 -6 l -8 -6 l -8 874 l 523 874 l 523 -6 l 340 -6 l 340 691 l 175 691 l 175 -6 "},"3":{"x_min":-8,"x_max":870,"ha":1042,"o":"m 870 -6 l -8 -6 l -8 179 l 687 179 l 687 517 l 165 517 l 165 700 l 687 700 l 687 1038 l -8 1038 l -8 1221 l 870 1221 l 870 -6 "},"9":{"x_min":-8,"x_max":870,"ha":1042,"o":"m 175 1038 l 175 700 l 687 700 l 687 1038 l 175 1038 m 870 -6 l -8 -6 l -8 179 l 687 179 l 687 517 l -8 517 l -8 1221 l 870 1221 l 870 -6 "},"l":{"x_min":-8,"x_max":175,"ha":347,"o":"m 175 -6 l -8 -6 l -8 1221 l 175 1221 l 175 -6 "},"4":{"x_min":-8,"x_max":870,"ha":1042,"o":"m -8 343 l -8 1221 l 175 1221 l 175 526 l 687 526 l 687 1221 l 870 1221 l 870 -6 l 687 -6 l 687 343 l -8 343 "},"p":{"x_min":-8,"x_max":523,"ha":694,"o":"m 175 179 l 340 179 l 340 691 l 175 691 l 175 179 m 175 -6 l 175 -353 l -8 -353 l -8 874 l 523 874 l 523 -6 l 175 -6 "},"à":{"x_min":-8,"x_max":523,"ha":694,"o":"m 349 1038 l 166 1038 l 166 1211 l -8 1211 l -8 1394 l 175 1394 l 175 1221 l 349 1221 l 349 1038 m 175 343 l 175 179 l 340 179 l 340 343 l 175 343 m -8 -6 l -8 526 l 340 526 l 340 691 l -8 691 l -8 874 l 523 874 l 523 -6 l -8 -6 "},"Ü":{"x_min":-8,"x_max":870,"ha":1042,"o":"m 696 1385 l 513 1385 l 513 1568 l 696 1568 l 696 1385 m 349 1385 l 166 1385 l 166 1568 l 349 1568 l 349 1385 m -8 -6 l -8 1221 l 175 1221 l 175 179 l 687 179 l 687 1221 l 870 1221 l 870 -6 l -8 -6 "},"ó":{"x_min":-8,"x_max":523,"ha":694,"o":"m 349 1038 l 166 1038 l 166 1221 l 340 1221 l 340 1394 l 523 1394 l 523 1211 l 349 1211 l 349 1038 m 175 179 l 340 179 l 340 691 l 175 691 l 175 179 m -8 -6 l -8 874 l 523 874 l 523 -6 l -8 -6 "}}}
